# xmcd CD database file
#
# Track frame offsets:
#	150
#	13712
#	27785
#	41353
#	57403
#	68462
#	85022
#	101625
#	119494
#	137893
#	152283
#	166480
#	179450
#	192760
#	207715
#
# Disc length: 3032 seconds
#
# Revision: 0
# Processed by: cddbd v1.5.2PL0 Copyright (c) Steve Scherf et al.
# Submitted via: ACXtractor (MTCDDB.DLL V2003.07.15)
#
DISCID=c50bd60f
DTITLE=Randy Travis - Greatest Hits
DYEAR=1995
DGENRE=Country
TTITLE0=Nighteen Eighty Two
TTITLE1=On the Other Hand
TTITLE2=Diggin' Up Bones
TTITLE3=Forever and Ever Amen
TTITLE4=Too Gone, Too Long
TTITLE5=I Told You So
TTITLE6=Deeper than Holler
TTITLE7=It's Just a Matter of Time
TTITLE8=Hard rock Bottom of your Heart
TTITLE9=Look Heart, No Hands 
TTITLE10=If I didn't have You
TTITLE11=Honky Tonk Moon
TTITLE12=An Old Pair of Shoes
TTITLE13=Heroes and Friends
TTITLE14=Reason I Cheat
EXTD=ID3G:   2 YEAR: 1995
EXTT0=
EXTT1=
EXTT2=
EXTT3=
EXTT4=
EXTT5=
EXTT6=
EXTT7=
EXTT8=
EXTT9=
EXTT10=
EXTT11=
EXTT12=
EXTT13=
EXTT14=
PLAYORDER=
